<?xml version="1.0" encoding="UTF-8" standalone="no"?>
<!-- Created with Inkscape (http://www.inkscape.org/) -->

<svg
   width="400mm"
   height="150mm"
   viewBox="0 0 400 150"
   version="1.1"
   id="svg1"
   inkscape:version="1.4 (e7c3feb100, 2024-10-09)"
   sodipodi:docname="logoAndText.svg"
   inkscape:export-filename="logo.png"
   inkscape:export-xdpi="96"
   inkscape:export-ydpi="96"
   xmlns:inkscape="http://www.inkscape.org/namespaces/inkscape"
   xmlns:sodipodi="http://sodipodi.sourceforge.net/DTD/sodipodi-0.dtd"
   xmlns:xlink="http://www.w3.org/1999/xlink"
   xmlns="http://www.w3.org/2000/svg"
   xmlns:svg="http://www.w3.org/2000/svg">
  <sodipodi:namedview
     id="namedview1"
     pagecolor="#ffffff"
     bordercolor="#000000"
     borderopacity="0.25"
     inkscape:showpageshadow="2"
     inkscape:pageopacity="0.0"
     inkscape:pagecheckerboard="0"
     inkscape:deskcolor="#d1d1d1"
     inkscape:document-units="mm"
     inkscape:zoom="0.36286468"
     inkscape:cx="731.67772"
     inkscape:cy="312.78878"
     inkscape:window-width="1510"
     inkscape:window-height="799"
     inkscape:window-x="0"
     inkscape:window-y="0"
     inkscape:window-maximized="1"
     inkscape:current-layer="layer1" />
  <defs
     id="defs1">
    <linearGradient
       id="linearGradient9"
       inkscape:collect="always">
      <stop
         style="stop-color:#5bcefa;stop-opacity:1;"
         offset="0"
         id="stop9" />
      <stop
         style="stop-color:#5bcefa;stop-opacity:1;"
         offset="0.59409446"
         id="stop11" />
      <stop
         style="stop-color:#5bcefa;stop-opacity:0.64591813;"
         offset="0.77274024"
         id="stop12" />
    </linearGradient>
    <radialGradient
       inkscape:collect="always"
       xlink:href="#linearGradient9"
       id="radialGradient10"
       cx="100"
       cy="100"
       fx="100"
       fy="100"
       r="62.835545"
       gradientUnits="userSpaceOnUse"
       gradientTransform="translate(8.3414899,-7.835545)" />
  </defs>
  <g
     inkscape:label="Layer 1"
     inkscape:groupmode="layer"
     id="layer1"
     transform="translate(-17.164455,-17.164455)">
    <rect
       style="fill:#37474f;fill-opacity:1;stroke-width:16.4161;stroke-linejoin:round"
       id="rect1"
       width="400"
       height="150"
       x="17.164455"
       y="17.164455"
       ry="12.164452" />
    <circle
       style="fill:#ffffff;fill-opacity:1;stroke:none;stroke-width:5;stroke-dasharray:none;stroke-opacity:1"
       id="path1-7"
       cx="108.34149"
       cy="92.164452"
       r="60.335545" />
    <circle
       style="opacity:1;fill:url(#radialGradient10);fill-opacity:1;stroke:#000000;stroke-width:5;stroke-dasharray:none;stroke-opacity:1"
       id="path1"
       cx="108.34149"
       cy="92.164452"
       r="60.335545" />
    <circle
       style="opacity:1;fill:none;fill-opacity:1;stroke:#4c4c4c;stroke-width:6.741;stroke-linecap:butt;stroke-linejoin:round;stroke-dasharray:0.6741, 23.2854, 0.6741, 0;stroke-dashoffset:0;stroke-opacity:1"
       id="path3"
       cx="-92.164421"
       cy="108.34592"
       inkscape:label="path3"
       transform="rotate(-90)"
       r="39.209988" />
    <path
       id="ellipse2"
       style="opacity:1;fill:#000000;fill-opacity:1;stroke:#000000;stroke-width:3;stroke-linecap:butt;stroke-linejoin:round;stroke-dasharray:none;stroke-opacity:1"
       d="m 108.49729,51.083505 a 121.21683,121.21682 0 0 0 -7.57266,41.290503 121.21683,121.21682 0 0 0 7.4166,40.871392 121.21683,121.21682 0 0 0 7.41712,-40.871392 121.21683,121.21682 0 0 0 -7.26106,-41.290503 z" />
    <path
       style="fill:none;stroke:#ffffff;stroke-width:13.5618;stroke-linejoin:round;stroke-dasharray:none;stroke-opacity:1"
       id="path1-53"
       sodipodi:type="arc"
       sodipodi:cx="234.12814"
       sodipodi:cy="92.167061"
       sodipodi:rx="31.84651"
       sodipodi:ry="31.84651"
       sodipodi:start="0"
       sodipodi:end="4.712389"
       sodipodi:open="true"
       sodipodi:arc-type="arc"
       d="M 265.97465,92.167061 A 31.84651,31.84651 0 0 1 246.31527,121.5894 31.84651,31.84651 0 0 1 211.60926,114.68594 31.84651,31.84651 0 0 1 204.7058,79.979929 31.84651,31.84651 0 0 1 234.12814,60.320551" />
    <path
       id="path1-5"
       style="color:#000000;fill:#ffffff;fill-opacity:1;stroke:none;stroke-width:0.678093;stroke-linejoin:round;-inkscape-stroke:none"
       d="m 296.96837,53.548093 c -4.70117,0.100568 -9.42393,1.05992 -13.92895,2.925957 -14.41606,5.971331 -23.84498,20.084101 -23.84498,35.68793 0,15.60384 9.42892,29.71662 23.84498,35.68793 12.87749,5.33404 27.53073,3.25492 38.377,-5.11288 -3.2787,-3.08223 -6.07563,-6.70532 -8.2512,-10.77209 -7.05025,5.47248 -16.53566,6.83398 -24.93582,3.35452 -9.38434,-3.88713 -15.47359,-13.001 -15.47359,-23.158531 0,-10.157537 6.08925,-19.269299 15.47359,-23.15642 8.39438,-3.477067 17.87271,-2.120091 24.92145,3.342956 1.91488,-3.585435 4.36484,-6.928566 7.33277,-9.896403 0.30141,-0.301399 0.62315,-0.573668 0.93209,-0.864481 -7.05175,-5.440138 -15.71057,-8.225406 -24.44735,-8.038502 z" />
    <path
       style="fill:none;stroke:#ffffff;stroke-width:13.5618;stroke-linejoin:round;stroke-dasharray:none;stroke-opacity:1"
       id="path1-5-2"
       sodipodi:type="arc"
       sodipodi:cx="92.161858"
       sodipodi:cy="-350.19556"
       sodipodi:rx="31.84651"
       sodipodi:ry="31.84651"
       sodipodi:start="0"
       sodipodi:end="4.712389"
       sodipodi:open="true"
       sodipodi:arc-type="arc"
       d="m 124.00837,-350.19556 a 31.84651,31.84651 0 0 1 -19.65938,29.42234 31.84651,31.84651 0 0 1 -34.706016,-6.90345 31.84651,31.84651 0 0 1 -6.903455,-34.70602 31.84651,31.84651 0 0 1 29.422339,-19.65938"
       transform="rotate(90)" />
  </g>
</svg>
